<?xml version="1.0" standalone="no"?>
<!DOCTYPE svg PUBLIC "-//W3C//DTD SVG 20010904//EN"
 "http://www.w3.org/TR/2001/REC-SVG-20010904/DTD/svg10.dtd">
<svg version="1.0" xmlns="http://www.w3.org/2000/svg"
 width="704.000000pt" height="704.000000pt" viewBox="0 0 704.000000 704.000000"
 preserveAspectRatio="xMidYMid meet">
<metadata>
Created by potrace 1.14, written by Peter Selinger 2001-2017
</metadata>
<g transform="translate(0.000000,704.000000) scale(0.100000,-0.100000)"
fill="#000000" stroke="none">
<path d="M1947 6267 c-714 -425 -1313 -786 -1332 -804 -18 -17 -41 -52 -50
-77 -15 -40 -16 -53 -6 -86 22 -73 62 -104 390 -299 1761 -1048 2322 -1378
2386 -1399 136 -47 326 -38 444 22 63 31 2548 1505 2619 1553 31 21 64 54 79
80 47 81 17 177 -75 238 -20 13 -613 366 -1317 785 l-1280 760 -280 -1 -280 0
-1298 -772z m1798 588 c227 -63 347 -203 305 -357 -26 -92 -164 -193 -320
-235 -91 -25 -310 -24 -400 0 -202 55 -324 166 -324 297 0 149 163 274 409
314 59 9 270 -3 330 -19z m1034 -618 c132 -46 214 -107 255 -189 32 -65 33
-118 2 -184 -42 -89 -155 -166 -305 -205 -56 -15 -108 -20 -201 -20 -143 0
-238 19 -339 71 -254 128 -253 368 3 489 96 46 153 61 261 70 115 9 241 -4
324 -32z m-3071 -583 c237 -49 392 -204 353 -352 -56 -207 -429 -328 -742
-241 -436 121 -403 501 51 594 91 18 246 18 338 -1z m3955 1 c170 -30 297 -99
355 -195 100 -168 -32 -346 -306 -411 -124 -30 -321 -23 -439 15 -331 107
-377 384 -88 529 138 69 310 91 478 62z m-2898 -625 c188 -59 305 -173 305
-296 0 -48 -44 -127 -95 -172 -96 -84 -226 -131 -393 -139 -234 -13 -444 64
-537 195 -27 40 -30 51 -30 122 0 71 3 82 30 122 61 85 175 150 325 183 96 22
303 14 395 -15z m975 -601 c108 -27 193 -73 250 -136 75 -82 89 -161 44 -251
-67 -135 -267 -223 -504 -223 -460 0 -700 330 -388 532 154 99 391 130 598 78z"/>
<path d="M423 4860 c-18 -10 -42 -39 -55 -62 l-23 -43 0 -1450 c0 -1396 1
-1452 19 -1505 44 -127 127 -258 203 -318 21 -16 405 -246 853 -512 448 -266
1000 -593 1226 -727 l411 -244 149 3 149 3 17 50 c16 46 17 157 18 1448 0
1564 4 1468 -72 1625 -29 60 -61 105 -112 158 -68 71 -100 91 -761 482 -379
225 -946 561 -1260 747 -313 186 -584 344 -602 351 -47 20 -122 18 -160 -6z
m452 -394 c176 -81 341 -294 400 -516 21 -78 24 -209 7 -268 -16 -54 -73 -117
-119 -133 -162 -53 -400 120 -528 386 -56 116 -78 199 -78 306 0 75 4 95 27
143 55 112 160 141 291 82z m1905 -1127 c217 -115 391 -408 392 -660 0 -77 -4
-97 -27 -144 -30 -61 -61 -88 -123 -105 -128 -34 -321 89 -451 287 -167 254
-184 548 -38 638 37 23 50 26 113 22 56 -3 83 -11 134 -38z m-956 -487 c130
-62 252 -192 331 -355 54 -113 77 -199 78 -297 2 -99 -17 -163 -62 -210 -143
-150 -435 11 -591 325 -61 123 -83 206 -84 310 0 99 14 151 56 199 63 72 158
82 272 28z m-976 -486 c145 -52 307 -225 388 -417 151 -357 1 -621 -275 -483
-170 85 -329 297 -386 514 -23 86 -23 222 -1 275 47 110 154 153 274 111z
m1928 -1136 c124 -64 249 -203 323 -361 52 -112 73 -195 73 -299 0 -140 -48
-225 -144 -251 -132 -35 -328 87 -456 283 -178 273 -186 576 -17 654 49 24
145 12 221 -26z"/>
<path d="M6458 4852 c-31 -15 -612 -355 -1290 -757 -1162 -688 -1237 -734
-1305 -802 -57 -57 -81 -90 -116 -165 -25 -51 -51 -118 -59 -148 -10 -45 -13
-318 -13 -1470 0 -1348 1 -1417 18 -1463 l19 -47 145 0 146 0 66 38 c353 205
2395 1423 2425 1446 53 43 122 137 162 221 68 144 65 41 62 1621 l-3 1429 -23
43 c-45 85 -130 105 -234 54z m-93 -363 c98 -27 152 -136 142 -285 -29 -404
-461 -804 -667 -618 -189 171 12 713 322 870 81 41 139 50 203 33z m-1828
-1135 c72 -53 97 -128 90 -264 -9 -177 -94 -357 -237 -501 -96 -97 -151 -132
-242 -156 -51 -13 -71 -14 -105 -4 -53 15 -98 52 -126 105 -32 60 -32 231 2
331 78 235 244 434 417 500 57 21 165 15 201 -11z m1866 -991 c15 -7 41 -32
57 -54 136 -188 -25 -627 -296 -808 -114 -77 -214 -94 -291 -52 -74 42 -104
111 -105 237 -1 189 101 405 264 560 132 126 269 169 371 117z m-1878 -1116
c74 -42 105 -112 105 -236 0 -336 -335 -737 -581 -696 -130 22 -191 194 -140
396 90 357 422 646 616 536z"/>
</g>
</svg>
