<svg width="237" height="81" viewBox="0 0 237 81" fill="none" xmlns="http://www.w3.org/2000/svg">
<path d="M134.513 1.54171C134.513 1.65562 134.513 1.73156 134.361 1.8075C133.86 2.4637 133.493 3.21225 133.281 4.01035C133.069 4.80846 133.017 5.64047 133.127 6.45883V10.1609C133.127 10.3507 133.127 10.4646 132.975 10.4836C132.918 10.4901 132.86 10.479 132.809 10.4519C132.758 10.4248 132.717 10.3829 132.69 10.3317C131.356 9.33932 129.688 8.90371 128.039 9.11671H115.281V16.7107H122.875C125.305 16.7107 126.843 16.312 127.526 15.4767C127.566 15.4327 127.618 15.4006 127.674 15.3838C127.731 15.3671 127.792 15.3664 127.849 15.3818C127.963 15.3818 128.02 15.4957 128.02 15.6475V25.3489C128.028 25.4087 128.016 25.4695 127.985 25.5212C127.953 25.573 127.906 25.6126 127.849 25.6337C127.735 25.6337 127.64 25.6336 127.526 25.5197C126.843 24.6654 125.305 24.2288 122.875 24.2288H115.281V34.4047C115.068 36.0746 115.511 37.7621 116.515 39.113C116.629 39.113 116.686 39.2649 116.667 39.3598C116.648 39.4547 116.534 39.4927 116.344 39.4927H106.567C106.377 39.4927 106.263 39.4927 106.225 39.3598C106.187 39.2269 106.225 39.1889 106.396 39.113C107.412 37.7674 107.855 36.0754 107.63 34.4047V6.45883C107.74 5.64047 107.688 4.80846 107.476 4.01035C107.264 3.21225 106.897 2.4637 106.396 1.8075C106.244 1.8075 106.187 1.65562 106.225 1.54171C106.263 1.4278 106.377 1.37085 106.567 1.37085H134.19C134.38 1.37085 134.494 1.4278 134.513 1.54171Z" fill="white"/>
<path d="M146.227 39.132C146.25 39.1758 146.262 39.2247 146.262 39.2744C146.262 39.324 146.25 39.3729 146.227 39.4168C146.227 39.4168 146.113 39.5686 145.923 39.5686H136.127C135.956 39.5686 135.842 39.5686 135.823 39.4168C135.816 39.3595 135.828 39.3016 135.855 39.2508C135.882 39.1999 135.924 39.1585 135.975 39.132C136.978 37.8029 137.415 36.1307 137.19 34.4806V6.45882C137.19 4.02875 136.791 2.49096 135.975 1.8075C135.671 1.52272 135.728 1.37085 136.127 1.37085H145.923C146.303 1.37085 146.379 1.52272 146.151 1.8075C145.296 2.45299 144.86 3.99078 144.86 6.45882V34.4806C144.757 35.3082 144.826 36.148 145.061 36.9481C145.296 37.7481 145.693 38.4914 146.227 39.132Z" fill="white"/>
<path d="M174.818 39.132C174.848 39.1737 174.863 39.2234 174.863 39.2744C174.863 39.3254 174.848 39.3751 174.818 39.4168C174.818 39.4168 174.704 39.5687 174.552 39.5687H164.699C164.642 39.5781 164.583 39.5683 164.531 39.5409C164.48 39.5134 164.439 39.4698 164.414 39.4168C164.395 39.3637 164.395 39.305 164.416 39.2523C164.437 39.1997 164.477 39.1568 164.528 39.132C165.053 38.4878 165.438 37.742 165.661 36.9414C165.883 36.1409 165.937 35.3031 165.819 34.4807V30.6837C165.828 29.6666 165.628 28.6585 165.231 27.722C164.861 26.803 164.297 25.9742 163.579 25.292C162.877 24.5932 162.045 24.0386 161.13 23.6592C160.186 23.2643 159.172 23.0641 158.149 23.0707H156.934V34.4617C156.709 36.1118 157.146 37.784 158.149 39.113C158.2 39.1395 158.242 39.181 158.27 39.2318C158.297 39.2827 158.308 39.3405 158.301 39.3978C158.301 39.3978 158.168 39.5497 157.997 39.5497H148.144C148.087 39.5591 148.028 39.5493 147.976 39.5219C147.925 39.4945 147.884 39.4509 147.859 39.3978C147.859 39.2839 147.916 39.189 148.03 39.113C149.033 37.7831 149.476 36.1138 149.264 34.4617V6.45886C149.374 5.64051 149.322 4.80849 149.11 4.01039C148.898 3.21229 148.532 2.46374 148.03 1.80753C147.878 1.69362 147.821 1.5987 147.859 1.48479C147.88 1.42821 147.92 1.38046 147.972 1.34941C148.024 1.31835 148.084 1.30583 148.144 1.31392H162.573C164.028 1.30549 165.469 1.59629 166.806 2.16825C168.122 2.70767 169.326 3.48659 170.357 4.46543C171.357 5.46219 172.156 6.64162 172.711 7.93969C173.296 9.2673 173.593 10.7036 173.584 12.1544C173.585 13.7406 173.242 15.3082 172.578 16.7487C171.924 18.2164 170.944 19.5152 169.711 20.5457C170.96 21.9376 171.956 23.5375 172.654 25.273C173.303 26.995 173.618 28.8248 173.584 30.6647V34.4617C173.467 35.2831 173.516 36.1196 173.728 36.9218C173.94 37.724 174.311 38.4755 174.818 39.132ZM162.668 15.4577C163.092 15.4663 163.514 15.3901 163.908 15.2336C164.303 15.0772 164.662 14.8435 164.965 14.5465C165.275 14.2435 165.52 13.8797 165.683 13.4779C165.847 13.0761 165.925 12.6449 165.914 12.2113C165.909 11.3536 165.565 10.5327 164.957 9.92799C164.348 9.32327 163.525 8.98384 162.668 8.98385H156.972V15.4577H162.668Z" fill="white"/>
<path d="M197.866 17.546C199.225 18.1234 200.456 18.962 201.492 20.0141C202.536 21.0634 203.373 22.3 203.96 23.6592C204.561 25.0758 204.865 26.6008 204.852 28.1396C204.856 29.646 204.561 31.138 203.984 32.5295C203.407 33.921 202.56 35.1843 201.492 36.2462C200.441 37.279 199.204 38.1035 197.847 38.6763C196.432 39.2826 194.906 39.5865 193.366 39.5686H188.26C186.727 39.5828 185.207 39.279 183.798 38.6763C182.436 38.1128 181.197 37.2871 180.153 36.2462C179.117 35.2055 178.291 33.9742 177.723 32.6201C177.12 31.2106 176.816 29.6915 176.831 28.1586H185.545C185.848 28.1586 185.943 28.2725 185.829 28.5004C185.631 28.7729 185.515 29.0965 185.495 29.433C185.475 29.7694 185.551 30.1045 185.715 30.3989C185.962 30.8715 186.329 31.2709 186.779 31.5569C187.246 31.784 187.759 31.9009 188.279 31.8987H193.347C193.855 31.9041 194.358 31.8078 194.828 31.6154C195.297 31.423 195.724 31.1385 196.081 30.7786C196.437 30.4256 196.72 30.0056 196.912 29.5429C197.105 29.0802 197.204 28.5839 197.204 28.0827C197.204 27.5814 197.105 27.0852 196.912 26.6225C196.72 26.1598 196.437 25.7398 196.081 25.3868C195.722 25.0303 195.295 24.7493 194.826 24.5602C194.356 24.3711 193.854 24.2778 193.347 24.2857H188.26C186.756 24.2869 185.268 23.9906 183.88 23.4138C182.492 22.8371 181.232 21.9914 180.172 20.9254C179.135 19.871 178.31 18.627 177.742 17.2612C177.141 15.858 176.837 14.3453 176.85 12.8188C176.834 11.2919 177.137 9.77857 177.742 8.37628C178.31 7.0105 179.135 5.76657 180.172 4.71218C181.209 3.65333 182.449 2.81401 183.817 2.24414C185.229 1.64971 186.746 1.34622 188.279 1.35184H193.385C194.895 1.34563 196.391 1.6395 197.785 2.21637C199.18 2.79325 200.447 3.64161 201.511 4.71218C202.56 5.76476 203.398 7.00853 203.979 8.37628C204.574 9.78133 204.878 11.2928 204.871 12.8188H196.1C195.797 12.8188 195.721 12.7049 195.873 12.477C196.029 12.185 196.11 11.859 196.11 11.5278C196.11 11.1966 196.029 10.8706 195.873 10.5785C195.661 10.0891 195.303 9.67769 194.847 9.40147C194.357 9.18524 193.826 9.07525 193.29 9.07873H188.222C187.214 9.07873 186.249 9.47877 185.537 10.1908C184.825 10.9029 184.425 11.8687 184.425 12.8757C184.425 13.8828 184.825 14.8485 185.537 15.5606C186.249 16.2727 187.214 16.6727 188.222 16.6727H193.309C194.873 16.6381 196.426 16.9358 197.866 17.546Z" fill="white"/>
<path d="M234.887 1.50374C234.887 1.50374 234.886 1.71258 234.716 1.82649C234.531 2.05134 234.377 2.30045 234.26 2.5669C234.074 2.97249 233.94 3.39984 233.861 3.83889C233.733 4.52877 233.65 5.22642 233.614 5.92723C233.614 6.76257 233.614 7.82573 233.614 9.05976V10.1609C233.623 10.2207 233.61 10.2815 233.579 10.3333C233.548 10.385 233.5 10.4247 233.444 10.4457C233.391 10.4655 233.332 10.4649 233.279 10.4438C233.227 10.4227 233.184 10.3828 233.159 10.3317C232.508 9.81927 231.761 9.44262 230.962 9.22413C230.163 9.00563 229.328 8.94974 228.507 9.05976H224.71V34.5186C224.6 35.334 224.652 36.1632 224.864 36.9583C225.076 37.7534 225.443 38.4986 225.945 39.1509C225.994 39.1781 226.034 39.2204 226.058 39.2716C226.082 39.3228 226.088 39.3803 226.077 39.4357C226.077 39.4357 225.964 39.5876 225.774 39.5876H215.921C215.866 39.5928 215.811 39.581 215.764 39.5538C215.716 39.5266 215.678 39.4854 215.655 39.4357C215.655 39.3218 215.712 39.2269 215.826 39.1509C216.819 37.8241 217.255 36.1621 217.041 34.5186V9.04078H213.244C210.814 9.04078 209.276 9.43947 208.592 10.2558C208.561 10.3057 208.515 10.3439 208.46 10.3645C208.405 10.3851 208.345 10.3869 208.289 10.3697C208.194 10.3697 208.156 10.2368 208.156 10.0849V6.45883C208.262 5.6366 208.203 4.80141 207.981 4.00255C207.759 3.20368 207.38 2.45731 206.865 1.8075C206.751 1.69359 206.713 1.59867 206.751 1.50374C206.789 1.40882 206.884 1.37085 207.035 1.37085H234.849C234.754 1.37085 234.849 1.40882 234.887 1.50374Z" fill="white"/>
<path d="M122.932 70.0775H129.178C129.19 71.4614 128.912 72.8325 128.362 74.1023C127.838 75.3394 127.077 76.4617 126.122 77.4057C125.174 78.3572 124.053 79.1177 122.818 79.646C121.548 80.1961 120.177 80.4742 118.793 80.4623H116.686C115.302 80.4742 113.931 80.1961 112.661 79.646C111.421 79.1178 110.294 78.3574 109.339 77.4057C108.368 76.4499 107.598 75.3087 107.077 74.0498C106.555 72.791 106.291 71.4402 106.301 70.0775V59.6927C106.292 58.3332 106.55 56.985 107.061 55.7249C107.594 54.4931 108.354 53.3725 109.301 52.4215C110.261 51.4816 111.388 50.7284 112.623 50.2003C113.893 49.6501 115.264 49.372 116.648 49.3839H118.755C120.139 49.372 121.51 49.6501 122.78 50.2003C125.272 51.2568 127.259 53.2365 128.324 55.7249C128.872 57.002 129.15 58.3788 129.14 59.7687H121.755C121.508 59.7687 121.47 59.6548 121.622 59.4459C121.877 59.0663 122.005 58.6156 121.988 58.1585C121.971 57.7015 121.81 57.2616 121.527 56.902L121.167 56.4653C121.039 56.3222 120.884 56.2061 120.711 56.1236C120.134 55.789 119.479 55.6122 118.812 55.611H116.705C116.161 55.6042 115.621 55.7085 115.118 55.9174C114.615 56.1263 114.161 56.4355 113.781 56.826C113.386 57.2053 113.073 57.6629 112.864 58.1695C112.655 58.6761 112.554 59.2207 112.566 59.7687V70.1535C112.564 70.6977 112.669 71.237 112.876 71.7403C113.083 72.2435 113.388 72.7008 113.773 73.0856C114.158 73.4704 114.615 73.7752 115.118 73.9823C115.622 74.1894 116.161 74.2947 116.705 74.2922H118.812C119.153 74.2985 119.492 74.2537 119.819 74.1593C120.103 74.1593 120.426 73.9505 120.768 73.7986C121.312 73.4631 121.709 72.9336 121.878 72.317C122.047 71.7003 121.976 71.0425 121.679 70.4762C121.527 70.2674 121.565 70.1535 121.812 70.1535L122.932 70.0775Z" fill="white"/>
<path d="M153.232 80.1016C153.232 80.1016 153.365 80.2724 153.232 80.3484C153.21 80.3879 153.176 80.4198 153.136 80.4401C153.095 80.4604 153.049 80.4681 153.004 80.4623H145.031C144.904 80.4623 144.828 80.4243 144.803 80.3484C144.803 80.3484 144.803 80.1965 144.898 80.1016C145.562 79.551 145.904 78.2031 145.904 76.3046V72.1469H137.608V76.3046C137.608 78.2031 137.968 79.532 138.671 80.1016C138.899 80.3484 138.861 80.4623 138.519 80.4623H130.469C130.33 80.4623 130.254 80.4243 130.241 80.3484C130.241 80.3484 130.241 80.1965 130.241 80.1016C130.944 79.551 131.286 78.2031 131.286 76.3046V66.4134C131.281 65.138 131.408 63.8656 131.665 62.6164C131.926 61.3734 132.307 60.1589 132.804 58.9903L135.196 53.4846C135.595 51.5861 135.5 50.2572 134.931 49.6876C134.836 49.6876 134.798 49.5168 134.836 49.4408C134.874 49.3649 134.931 49.3269 135.064 49.3269H148.353C148.657 49.3269 148.714 49.4408 148.543 49.6876C147.954 50.2382 147.84 51.5861 148.22 53.4846L150.593 58.9903C151.09 60.1589 151.472 61.3734 151.732 62.6164C151.973 63.8677 152.094 65.1391 152.093 66.4134V76.3046C152.188 78.298 152.625 79.551 153.232 80.1016ZM145.942 65.9388C145.886 64.3931 145.578 62.867 145.031 61.4203L141.898 54.1111L138.69 61.4203C138.063 62.8256 137.727 64.3432 137.702 65.8818L145.942 65.9388Z" fill="white"/>
<path d="M172.046 62.5216C173.154 62.9943 174.16 63.6777 175.008 64.534C175.86 65.3846 176.543 66.3897 177.02 67.4956C177.505 68.6493 177.75 69.8894 177.742 71.1408C177.747 72.3918 177.501 73.6311 177.02 74.7859C176.55 75.8955 175.866 76.9018 175.008 77.7475C174.149 78.5858 173.146 79.2613 172.046 79.741C170.885 80.2217 169.639 80.4669 168.382 80.4624H164.224C162.98 80.4654 161.747 80.2202 160.598 79.741C158.364 78.7983 156.586 77.0203 155.643 74.7859C155.164 73.6438 154.919 72.4173 154.922 71.1787H162.117C162.364 71.1787 162.44 71.1787 162.345 71.4445C162.188 71.6741 162.096 71.9418 162.08 72.2193C162.063 72.4968 162.122 72.7736 162.25 73.0203C162.465 73.3941 162.764 73.7126 163.123 73.9505C163.502 74.1326 163.918 74.2236 164.338 74.2163H168.477C168.888 74.2236 169.297 74.1484 169.678 73.9952C170.06 73.8419 170.407 73.6137 170.698 73.324C170.989 73.0378 171.221 72.6965 171.378 72.32C171.536 71.9436 171.617 71.5395 171.617 71.1313C171.617 70.7231 171.536 70.319 171.378 69.9425C171.221 69.566 170.989 69.2247 170.698 68.9385C170.41 68.6427 170.064 68.4093 169.682 68.2525C169.3 68.0958 168.89 68.0191 168.477 68.0272H164.338C163.093 68.0318 161.86 67.7865 160.712 67.3058C159.603 66.8357 158.596 66.1519 157.751 65.2934C156.942 64.4234 156.299 63.4134 155.852 62.3128C154.892 59.9906 154.892 57.3826 155.852 55.0605C156.299 53.9599 156.942 52.9498 157.751 52.0799C158.559 51.2198 159.526 50.5236 160.598 50.0295C161.747 49.5503 162.98 49.305 164.224 49.308H168.382C169.639 49.3035 170.885 49.5487 172.046 50.0295C173.151 50.5091 174.155 51.1917 175.008 52.0419C175.862 52.8981 176.546 53.9098 177.02 55.0225C177.499 56.1712 177.745 57.404 177.742 58.6487H170.603C170.357 58.6487 170.3 58.6487 170.414 58.3829C170.548 58.1387 170.619 57.8643 170.619 57.5855C170.619 57.3066 170.548 57.0323 170.414 56.7881C170.232 56.3928 169.943 56.0571 169.578 55.8199C169.175 55.6521 168.743 55.5619 168.306 55.5541H164.168C163.763 55.5508 163.361 55.628 162.986 55.7812C162.611 55.9344 162.271 56.1605 161.984 56.4464C161.546 56.8792 161.246 57.4332 161.125 58.0372C161.003 58.6412 161.064 59.2678 161.301 59.8368C161.537 60.4058 161.938 60.8912 162.452 61.2308C162.966 61.5704 163.57 61.7488 164.187 61.7432H168.325C169.607 61.7329 170.876 61.9984 172.046 62.5216Z" fill="white"/>
<path d="M187.861 80.1017C187.89 80.1747 187.89 80.2564 187.861 80.3295C187.861 80.4244 187.747 80.4624 187.595 80.4624H179.621C179.469 80.4624 179.393 80.4624 179.374 80.3295C179.366 80.2843 179.372 80.2374 179.393 80.1962C179.413 80.155 179.447 80.1218 179.488 80.1017C179.899 79.567 180.2 78.956 180.373 78.3042C180.545 77.6524 180.587 76.9727 180.495 76.3047V53.5227C180.495 51.6242 180.153 50.2952 179.488 49.7257C179.242 49.4789 179.298 49.365 179.621 49.365H187.595C187.899 49.365 187.975 49.4789 187.785 49.7257C187.082 50.2383 186.741 51.5103 186.741 53.5227V76.3047C186.653 76.9807 186.707 77.6676 186.9 78.3214C187.093 78.9752 187.42 79.5816 187.861 80.1017Z" fill="white"/>
<path d="M212.105 80.1016C212.129 80.1344 212.143 80.1744 212.143 80.2155C212.143 80.2566 212.129 80.2965 212.105 80.3294C212.088 80.3744 212.056 80.4121 212.014 80.4363C211.973 80.4606 211.924 80.4697 211.877 80.4623H203.884C203.751 80.4623 203.675 80.4623 203.656 80.3294C203.647 80.3083 203.642 80.2855 203.642 80.2624C203.642 80.2394 203.646 80.2165 203.655 80.1952C203.664 80.1739 203.677 80.1547 203.694 80.1386C203.71 80.1225 203.73 80.1099 203.751 80.1016C204.393 79.3753 204.732 78.4312 204.7 77.4626C204.789 76.973 204.789 76.4715 204.7 75.9818C204.579 75.5048 204.36 75.0585 204.055 74.6719L196.575 64.1921V76.3235C196.483 76.9942 196.527 77.6766 196.707 78.3293C196.886 78.9821 197.197 79.5915 197.619 80.1205C197.641 80.1289 197.66 80.1414 197.677 80.1575C197.693 80.1736 197.706 80.1929 197.715 80.2142C197.724 80.2355 197.728 80.2583 197.728 80.2814C197.728 80.3045 197.723 80.3272 197.714 80.3484C197.697 80.3933 197.665 80.4311 197.624 80.4553C197.582 80.4795 197.534 80.4887 197.486 80.4813H189.418C189.37 80.4887 189.322 80.4795 189.28 80.4553C189.239 80.4311 189.207 80.3933 189.19 80.3484C189.165 80.3155 189.152 80.2755 189.152 80.2345C189.152 80.1934 189.165 80.1534 189.19 80.1205C189.612 79.5915 189.922 78.9821 190.102 78.3293C190.281 77.6766 190.326 76.9942 190.234 76.3235V53.5416C190.234 51.6431 189.892 50.3141 189.19 49.7446C189.168 49.7071 189.157 49.6645 189.157 49.6212C189.157 49.5779 189.168 49.5353 189.19 49.4978C189.212 49.4583 189.246 49.4263 189.286 49.406C189.327 49.3857 189.373 49.378 189.418 49.3839H197.448C197.575 49.3839 197.651 49.4218 197.676 49.4978C197.676 49.4978 197.676 49.6497 197.676 49.7446C197.212 50.2109 196.918 50.8192 196.841 51.4722C196.728 52.0362 196.728 52.6169 196.841 53.1809C196.97 53.7351 197.209 54.258 197.543 54.7186L204.985 65.1414V53.5226C204.985 51.6241 204.643 50.2951 203.96 49.7256C203.922 49.6977 203.894 49.6597 203.877 49.616C203.86 49.5723 203.856 49.5247 203.865 49.4788C203.887 49.4393 203.921 49.4073 203.962 49.387C204.002 49.3667 204.048 49.359 204.093 49.3649H212.143C212.188 49.359 212.233 49.3667 212.274 49.387C212.315 49.4073 212.348 49.4393 212.37 49.4788C212.392 49.5163 212.403 49.5589 212.403 49.6022C212.403 49.6455 212.392 49.6881 212.37 49.7256C211.668 50.2762 211.326 51.6241 211.326 53.5226V76.3046C211.196 76.9574 211.198 77.6296 211.332 78.2817C211.466 78.9337 211.728 79.5525 212.105 80.1016Z" fill="white"/>
<path d="M226.267 49.6118C227.658 49.6082 229.035 49.8926 230.311 50.4471C231.542 50.9733 232.663 51.7269 233.614 52.6684C234.55 53.6251 235.303 54.7446 235.836 55.9717C236.386 57.2483 236.664 58.6255 236.652 60.0155V70.4003C236.664 71.7842 236.386 73.1553 235.836 74.4251C235.312 75.6574 234.558 76.7785 233.614 77.7285C232.652 78.6943 231.506 79.4586 230.245 79.9768C228.983 80.4951 227.631 80.757 226.267 80.7471H224.217C222.835 80.7563 221.466 80.4851 220.192 79.9498C218.952 79.4399 217.829 78.6843 216.889 77.7285C215.933 76.7845 215.172 75.6622 214.648 74.4251C214.098 73.1553 213.82 71.7842 213.832 70.4003V60.0155C213.82 58.6255 214.098 57.2483 214.648 55.9717C215.182 54.7399 215.942 53.6193 216.889 52.6684C217.834 51.7188 218.956 50.9641 220.192 50.4471C221.461 49.891 222.832 49.6064 224.217 49.6118H226.267ZM226.267 74.5011C227.367 74.5011 228.421 74.0657 229.201 73.29C229.98 72.5144 230.42 71.4618 230.425 70.3624V59.9966C230.42 58.8972 229.98 57.8445 229.201 57.0689C228.421 56.2932 227.367 55.8578 226.267 55.8578H224.217C223.663 55.8568 223.114 55.9665 222.603 56.1806C222.107 56.39 221.656 56.6929 221.274 57.0729C220.9 57.4484 220.604 57.8934 220.401 58.3828C220.177 58.8907 220.067 59.4415 220.078 59.9966V70.3624C220.067 70.9174 220.177 71.4682 220.401 71.9761C220.604 72.4655 220.9 72.9105 221.274 73.286C221.656 73.666 222.107 73.9689 222.603 74.1783C223.114 74.3924 223.663 74.5021 224.217 74.5011H226.267Z" fill="white"/>
<path d="M66.6796 4.12369C65.7027 3.42907 64.5666 2.99162 63.3761 2.8517L28.0071 0.041915C25.7859 -0.147935 24.7797 1.31391 25.748 3.30733L40.9359 35.392C41.5084 36.4478 42.323 37.3528 43.3131 38.0326C44.3032 38.7125 45.4405 39.1478 46.6314 39.3029L82.0004 42.1316C84.2216 42.3025 85.2089 40.8596 84.2596 38.8472L69.0716 6.78159C68.5113 5.71387 67.6962 4.80092 66.6985 4.12369H66.6796ZM65.5784 6.40188C66.7986 7.25814 67.7843 8.40705 68.4452 9.74324C69.6412 12.3822 68.2363 14.3566 65.3126 14.1288C63.7599 13.9243 62.2783 13.3526 60.9907 12.4612C59.703 11.5697 58.6464 10.3842 57.9085 9.00283C56.6934 6.36392 58.0604 4.37049 60.9651 4.57932C62.6485 4.77462 64.2451 5.43167 65.5784 6.47782V6.40188ZM71.2739 18.894C74.1786 20.9444 75.5265 23.982 74.2925 25.6716C73.9199 26.1015 73.4432 26.4285 72.908 26.6213C72.3728 26.8141 71.7971 26.8663 71.2359 26.7728C69.6496 26.5817 68.1338 26.0063 66.8204 25.0965C65.5069 24.1866 64.4354 22.9699 63.6989 21.5519C62.4839 18.894 63.8508 16.9006 66.7745 17.1094C68.3867 17.3022 69.9194 17.9178 71.2169 18.894H71.2739ZM37.8414 4.46542C39.0602 5.31516 40.046 6.45761 40.7081 7.78779C41.9231 10.4457 40.5562 12.4391 37.6515 12.2303C36.0798 12.0395 34.5779 11.4699 33.2749 10.5704C31.972 9.67089 30.907 8.46843 30.1714 7.06637C28.9564 4.42745 30.3233 2.43403 33.228 2.64286C34.9114 2.83815 36.5081 3.4952 37.8414 4.54136V4.46542ZM77.1783 31.6709C78.3941 32.5319 79.3788 33.6796 80.0449 35.0122C81.26 37.6512 79.8741 39.6446 76.9504 39.4168C75.3886 39.2257 73.8961 38.6597 72.6003 37.7672C71.3044 36.8746 70.2436 35.6819 69.5083 34.2908C68.2933 31.6329 69.6602 29.6395 72.5649 29.8483C74.2483 30.0436 75.845 30.7007 77.1783 31.7468V31.6709ZM43.5179 17.0525C46.4226 19.0838 47.7705 22.1214 46.5365 23.8301C46.1657 24.2569 45.6921 24.5821 45.1606 24.7748C44.629 24.9675 44.057 25.0213 43.4989 24.9312C41.9111 24.7605 40.3893 24.2042 39.0657 23.3108C37.7421 22.4173 36.657 21.2139 35.9049 19.8053C34.6708 17.1664 35.9998 15.154 38.9045 15.3248H38.9994C40.63 15.4579 42.1929 16.0357 43.5179 16.9955V17.0525ZM22.1408 4.97801C21.2105 4.29455 20.0524 4.59832 19.1412 5.90828L1.12443 31.9936C0.496941 33.0145 0.119943 34.1694 0.024254 35.3638C-0.0714353 36.5583 0.116884 37.7585 0.57385 38.8662L15.1922 69.6978C15.2917 70.13 15.5261 70.5192 15.8616 70.8092C16.1971 71.0993 16.6161 71.275 17.0581 71.3109C17.5001 71.3469 17.942 71.2412 18.32 71.0092C18.6979 70.7772 18.9922 70.4309 19.1602 70.0205L37.1769 43.9162C37.8044 42.8953 38.1814 41.7405 38.2771 40.546C38.3728 39.3515 38.1844 38.1514 37.7275 37.0436L23.109 6.23102C22.8953 5.73943 22.5625 5.30879 22.1408 4.97801ZM81.8295 46.1754C81.374 45.904 80.8593 45.7476 80.3298 45.7198L46.3087 42.929C45.1122 42.894 43.9245 43.1424 42.8423 43.6538C41.7601 44.1652 40.8142 44.9251 40.0816 45.8717L22.0649 71.976C20.8119 73.8745 21.5523 75.3933 23.7735 75.5642L57.7756 78.317C58.9736 78.3497 60.1624 78.0984 61.2447 77.5837C62.327 77.0689 63.2721 76.3053 64.0027 75.3553L82.0194 49.27C82.9307 47.941 82.7978 46.764 81.8106 46.1185L81.8295 46.1754ZM21.894 10.1609C23.7925 11.262 24.6658 14.8312 23.9254 18.1156C23.72 19.0842 23.3336 20.0054 22.7862 20.8305C21.2105 23.1277 18.9893 22.8619 17.6793 20.2609C17.082 18.8406 16.8274 17.2996 16.9363 15.7626C17.0451 14.2257 17.5143 12.7359 18.3058 11.4139C19.312 9.85716 20.679 9.38253 21.894 10.1609ZM77.0833 48.1309C77.3481 48.3678 77.562 48.6561 77.7119 48.9783C77.8618 49.3004 77.9446 49.6497 77.9553 50.0049C77.9659 50.3601 77.9042 50.7137 77.7739 51.0443C77.6436 51.3749 77.4473 51.6755 77.1972 51.9279C76.2476 53.1529 75.0215 54.1356 73.619 54.7956C72.2166 55.4555 70.6778 55.774 69.1286 55.7249C66.2618 55.4781 65.1987 53.4467 66.7745 51.1685C67.7261 49.9457 68.9527 48.9647 70.3547 48.305C71.7566 47.6452 73.2943 47.3254 74.8431 47.3715C75.6496 47.4079 76.428 47.6784 77.0833 48.1499V48.1309ZM49.4792 29.7154C50.6994 30.5717 51.6851 31.7206 52.3459 33.0568C53.5419 35.6957 52.137 37.6702 49.2134 37.4423C47.6611 37.2363 46.1802 36.6641 44.8928 35.7728C43.6054 34.8815 42.5484 33.6967 41.8092 32.3164C40.5942 29.6775 41.9611 27.684 44.8848 27.8929C46.5616 28.0916 48.1512 28.7484 49.4792 29.7914V29.7154ZM33.0382 33.5124C34.9367 34.6326 35.8099 38.1827 35.0695 41.4671C34.8643 42.4417 34.478 43.369 33.9305 44.201C32.3547 46.4792 30.1334 46.2324 28.8425 43.6314C28.2377 42.2103 27.9775 40.6664 28.0831 39.1256C28.1886 37.5848 28.657 36.0908 29.45 34.7654C30.4752 33.3606 31.8421 32.9429 33.0192 33.5884L33.0382 33.5124ZM51.1688 46.0235C52.251 46.8968 52.2889 48.3397 51.2827 49.8205C50.329 51.041 49.1021 52.0204 47.7006 52.6799C46.2992 53.3394 44.7624 53.6606 43.2141 53.6175C40.3474 53.3707 39.2842 51.3393 40.86 49.0611C41.8056 47.8365 43.0283 46.8537 44.4277 46.1936C45.8271 45.5335 47.3631 45.215 48.9096 45.2641C49.7206 45.2914 50.506 45.5554 51.1688 46.0235ZM20.4891 31.8607C22.3876 32.9809 23.2609 36.5311 22.5205 39.8155C22.3239 40.7927 21.9368 41.7216 21.3814 42.5493C19.8056 44.8275 17.5844 44.5617 16.2934 41.9608C15.6962 40.5412 15.4402 39.0015 15.5457 37.465C15.6512 35.9286 16.1153 34.4383 16.9009 33.1137C17.9261 31.6329 19.293 31.2153 20.4891 31.8607ZM7.88308 30.3419C9.78158 31.4431 10.6548 34.9933 9.91443 38.2777C9.70059 39.2495 9.31488 40.1753 8.77537 41.0115C7.19962 43.2897 4.97837 43.0429 3.66841 40.4419C3.06812 39.0198 2.81033 37.4766 2.91586 35.9366C3.02138 34.3966 3.48722 32.9029 4.27589 31.576C5.28209 30.0951 6.64904 29.6775 7.86407 30.3419H7.88308ZM63.0724 68.4258C64.1545 69.2991 64.1925 70.742 63.1863 72.2228C62.2357 73.4467 61.0093 74.4286 59.6071 75.0884C58.2049 75.7483 56.6667 76.0674 55.1177 76.0198C52.251 75.792 51.1878 73.7606 52.7635 71.4824C53.7102 70.2589 54.9331 69.2769 56.3323 68.617C57.7314 67.957 59.267 67.6378 60.8132 67.6854C61.6302 67.7293 62.416 68.0133 63.0724 68.5018V68.4258ZM19.0273 53.8264C20.9258 54.9275 21.7991 58.4967 21.0587 61.7811C20.845 62.7471 20.4592 63.6667 19.9195 64.4959C18.3438 66.7931 16.1225 66.5273 14.8126 63.9264C14.2124 62.5075 13.9547 60.9673 14.0603 59.4303C14.1658 57.8934 14.6317 56.4029 15.4201 55.0794C16.4263 53.5986 17.7932 53.1809 19.0082 53.8454L19.0273 53.8264ZM37.1389 66.3375C38.2401 67.2108 38.278 68.6536 37.2528 70.1345C36.3052 71.3568 35.082 72.3379 33.6831 72.9978C32.2843 73.6576 30.7492 73.9776 29.2032 73.9314C26.3175 73.7036 25.2733 71.6722 26.8491 69.3751C27.7978 68.1538 29.0211 67.1736 30.4197 66.5138C31.8184 65.8541 33.3529 65.5335 34.8987 65.5781C35.7125 65.6244 36.4935 65.9155 37.1389 66.4134V66.3375Z" fill="url(#paint0_linear)"/>
<defs>
<linearGradient id="paint0_linear" x1="10.5924" y1="19.2418" x2="73.2523" y2="62.7981" gradientUnits="userSpaceOnUse">
<stop stop-color="#414FA4"/>
<stop offset="1" stop-color="#5484FF"/>
</linearGradient>
</defs>
</svg>
